<?xml version='1.0' encoding='utf-8'?>
<svg xmlns="http://www.w3.org/2000/svg" width='100%'  version="1.1" style="shape-rendering:geometricPrecision; text-rendering:geometricPrecision; image-rendering:optimizeQuality; fill-rule:evenodd; clip-rule:evenodd" viewBox="0 0 13000 18000"> <defs> <style type="text/css">  .fil1 {fill:transparent} .fil0 {fill:red}  </style> </defs> <g id="Layer_x0020_1"> <metadata id="CorelCorpID_0Corel-Layer"/> <path class="fil0" d="M3916 8990l491 155c2,194 16,1159 114,1330 59,104 464,280 753,37 88,-74 72,-3 107,-139 39,-147 0,-80 1,-224 1,-156 32,-347 5,-496 -30,-166 -7,-257 20,-416 115,-38 370,-98 488,-71l4 638c-10,114 -60,512 -116,593 -45,65 -120,73 -193,162 -77,94 -112,82 -205,145 -210,141 -306,145 -553,136 -142,-5 -121,26 -258,-45 -222,-115 -286,-266 -353,-349 -234,-289 -249,-469 -269,-784 -14,-215 -30,-456 -35,-670zm1550 1873c36,-53 225,-196 283,-230 42,-25 596,-183 737,-258 180,-96 331,-22 412,-584 62,-435 24,-730 52,-938 26,-192 -22,-237 183,-341 7,71 -4,365 -11,450l-78 832c-9,260 35,25 -22,376 92,-5 198,-127 371,-234 514,-318 326,-748 404,-1383 14,-110 18,-462 16,-579 -2,-115 7,-180 11,-290 5,-121 303,-644 337,-892 16,-118 0,-161 70,-253 29,257 20,610 21,876 1,142 5,296 1,436 -4,141 -38,280 -21,429 32,289 45,532 -11,810 -37,185 -92,113 -162,285 -81,199 -54,154 -160,298 -51,68 -9,68 -75,134 -240,238 -38,123 -361,323 -89,55 -194,153 -263,192 -43,24 -102,26 -167,60 -62,33 -78,54 -138,89 -388,226 -985,285 -1427,392zm2580 -4877c-17,272 29,256 -63,647 -33,138 -113,493 -161,605 -154,359 -510,820 -798,1088 -34,31 -60,73 -88,97 -36,31 -79,40 -118,68 -319,227 -21,69 -478,288 -169,81 -504,124 -593,154 -197,67 -463,61 -671,44 -198,-16 7,46 -333,15 -638,-58 -698,-200 -900,-241 -184,-38 -548,-272 -712,-408 -129,-107 -466,-466 -550,-590 -234,-344 -355,-690 -446,-1086 -61,-265 -58,-424 -90,-681 -10,-81 19,-254 25,-353 8,-141 205,-712 286,-852 40,-70 87,-176 120,-252 54,-125 188,-311 286,-459 167,-251 781,-685 1067,-841 754,-410 1689,-342 2426,29 152,77 815,426 944,567 486,529 892,1448 847,2161zm-7348 1681l133 259c19,37 33,110 55,155 49,100 66,163 149,245 14,206 76,279 99,430 -117,-95 -126,-213 -178,-292 -28,-43 -17,4 -57,-71l-284 -581c-82,-209 -208,-472 -251,-681l-95 -400c-49,-437 -117,-1966 187,-2228l98 30c-28,96 -50,187 -75,279 -32,117 -48,519 -58,657 -77,996 -36,1209 276,2199zm8671 -3581c74,75 316,905 331,1052 48,486 119,708 105,1283 -5,203 -49,405 -90,602 -76,370 -351,1329 -573,1505 3,-76 70,-490 98,-556l279 -1005c52,-234 70,-1035 54,-1290 -16,-268 -150,-1126 -286,-1370 -59,-106 -20,-173 81,-220zm-567 4893c-121,164 -159,184 -258,284 -108,109 -69,112 -284,276 -52,40 -91,41 -124,63 -62,41 1,45 -100,94 32,-151 244,-397 360,-497 529,-455 338,-1494 346,-2178 9,-701 -36,-1040 -46,-1677 -8,-499 -35,-1120 145,-1581 184,-96 356,-92 444,111 -87,194 -208,-15 -169,932 14,343 -24,716 4,1055 64,757 130,2511 -319,3118zm-7962 -4962l-175 12c-5,-130 344,-622 435,-746l147 -1 43 73c-44,54 -92,92 -137,141 -57,64 -71,83 -119,152 -69,99 -159,250 -194,368zm463 -983c446,-57 472,166 546,540 81,408 66,1383 127,1555 74,207 -230,673 -60,1444 59,268 152,584 269,830 53,112 84,659 76,717 -33,229 -23,505 -24,744 -1,203 88,751 215,900 158,185 85,170 347,221 14,-228 -24,-72 -53,-384 -32,-348 -9,-972 -18,-1368 146,77 176,150 195,314 77,658 -64,1509 357,1694 132,58 230,116 351,168 442,190 360,14 658,379 -127,4 -490,-83 -618,-128l-1039 -473c-228,-90 -300,-147 -440,-323 -134,3 -160,-40 -259,-139 -109,-109 -371,-394 -404,-512 -30,-106 -232,-491 -279,-626 -63,-179 -251,-1844 -261,-2020 -9,-150 2,-300 -7,-449 -8,-133 -29,-272 -42,-404 -30,-310 -58,-1003 -130,-1244 -57,-191 -178,-125 -266,-180 56,-24 50,8 114,-21 31,-14 72,-57 105,-81 115,11 228,23 291,122 135,209 231,1147 254,1446 9,112 10,261 13,377 17,651 83,1750 163,2344 15,111 102,619 144,705 73,152 237,393 421,453 30,-64 -30,-266 -63,-353 -104,-279 -165,-1734 -194,-2109 -21,-268 -72,-592 -64,-853 11,-412 -88,-954 -99,-1284 -12,-360 -85,-856 -109,-1265 -7,-117 -29,-290 -63,-399 -54,-173 -45,-215 -231,-245 15,-46 32,-49 77,-91zm1062 1273c16,-385 -76,-1089 -16,-1440l125 93c-42,173 -59,188 -12,378 24,99 28,604 28,727 1,80 36,64 -16,147 -38,61 -38,81 -109,94zm6058 -1429c58,-58 54,-66 139,-77 111,101 516,540 549,674 -66,66 -109,73 -202,47 -72,-107 -132,-240 -214,-344l-119 -166c-54,-85 -104,-85 -153,-133zm-5724 92c204,26 470,-17 670,-75 294,-86 414,-219 515,-214 38,165 -38,184 -162,238 -194,85 -460,144 -677,152 -97,3 -182,6 -273,-40 -104,-52 -26,-5 -73,-61zm5510 2547c-57,-82 -70,-221 -89,-333 -23,-136 -147,-503 -215,-617 -78,-132 -101,-175 -87,-334 11,-134 -23,-233 -27,-359 -4,-128 13,-228 -1,-373 -20,-216 -10,-577 83,-768 143,-91 417,-125 540,-18 -24,75 -113,85 -173,201 -57,110 -31,232 -39,358l-36 1491c3,117 30,214 34,351 4,131 2,274 9,401zm-1365 -2874c-136,256 -414,219 -669,220 -207,1 -242,-25 -417,-118 49,-37 -68,-42 184,-4 597,90 532,-58 903,-98zm-1857 -332l34 140 -89 54c-111,-41 -119,-76 -99,-182l153 -12zm2114 38l64 -1c113,45 118,1282 115,1305l-134 -106 -8 -625c5,-197 33,-371 -36,-573zm-4605 367c24,-171 134,-284 227,-404 52,-67 231,-286 306,-317 147,-60 360,-133 518,-117 131,14 358,63 433,171 223,320 -251,529 -487,635 -94,42 -407,108 -509,117 -120,10 -159,-15 -270,-2 -131,15 -143,28 -217,-84zm2867 -493c32,-145 360,-529 777,-384 515,178 456,225 784,421 13,399 -991,369 -1256,217 -126,-73 -232,-121 -305,-254zm-3701 607l-193 26c20,-71 334,-387 406,-441 47,-36 65,-74 101,-103 82,-65 57,13 128,-82 65,-87 108,-166 231,-197 -28,88 -30,48 -67,114 -68,121 50,82 -230,327 -46,40 -145,144 -183,192 -99,127 -121,159 -193,164zm2714 -963c-10,-116 -18,-98 38,-180 153,-25 247,38 228,199 -92,71 -186,53 -266,-19zm3273 267c-97,-74 -365,-195 -487,-220l-34 -154c269,25 965,551 1106,707l-235 15c-45,-44 -105,-164 -154,-188 -77,-38 -40,15 -116,-74 -34,-40 -40,-55 -80,-85zm-5227 272c-130,-238 264,-560 340,-596 542,-263 742,-104 732,-96 -18,15 -333,-15 -664,228 -421,309 -308,344 -407,464zm3387 -789c59,-248 753,-128 1072,125 94,75 153,242 117,368 -115,4 -55,-9 -133,-85 -154,-149 -737,-407 -914,-379 -94,15 -76,49 -142,-30zm-2423 -127c343,-128 812,-274 1196,-258 300,13 1057,-17 1319,120 -82,63 -158,103 -272,89 -138,-17 -190,9 -343,-30 -191,-49 -485,-24 -686,-11l-952 161c-36,6 -196,-56 -262,-71zm1156 -430c-780,105 -1410,230 -2096,687 -702,428 -1141,867 -1625,1523 -324,439 -650,1259 -755,1792 -150,761 -27,1776 230,2492 305,847 779,1741 1501,2309 65,51 109,101 180,148 125,83 259,185 383,261l872 392c365,174 567,256 980,305 3862,460 6780,-2969 5472,-6767 -29,-85 -52,-140 -78,-230 -416,-867 -1052,-1780 -1920,-2246 -795,-427 -2181,-795 -3144,-665z"/> <path class="fil0" d="M4861 3718c14,193 29,386 36,574 7,191 -36,389 -31,559 9,360 45,719 37,1077 -4,192 -31,378 -26,571 4,192 10,389 -7,579l-140 986c143,105 504,99 652,31 13,-56 -17,-427 -20,-528 -22,-607 -69,-1034 -45,-1694 20,-559 -66,-1230 -53,-1722 4,-140 93,-435 62,-522 -160,-18 -84,36 -301,-24l-163 113z"/> <path class="fil1" d="M8743 7021c-9,683 183,1723 -346,2178 -116,100 -328,346 -360,497 100,-49 38,-53 100,-94 33,-22 73,-24 124,-63 215,-164 176,-167 284,-276 98,-100 136,-120 258,-284 449,-607 383,-2361 319,-3118 -29,-339 10,-711 -4,-1055 -39,-947 82,-738 169,-932 -88,-204 -260,-207 -444,-111 -180,461 -153,1082 -145,1581 10,637 55,976 46,1677z"/> </g> </svg>