<svg xmlns="http://www.w3.org/2000/svg" viewBox="0 0 269.32 269.32">
                <g id="Group_150" data-name="Group 150" transform="translate(6000.66 -10775.34)">
                  <path id="Path_82" data-name="Path 82" d="M124.66,0A124.66,124.66,0,0,1,0,124.66,124.66,124.66,0,0,1-124.66,0,124.66,124.66,0,0,1,0-124.66,124.66,124.66,0,0,1,124.66,0Z" transform="translate(-5866 10910)" fill="rgba(255,255,255,0)" stroke="#fff" stroke-linecap="square" stroke-width="20"/>
                  <path stroke='#fff' fill='#fff' id="Path_83" data-name="Path 83" d="M31.046-42.987q-4.361-13.291-23.674-13.5V-9.968q1.661.415,5.192,1.246,16.2,3.738,22.428,6.853A34.254,34.254,0,0,1,46.621,8.307a32.449,32.449,0,0,1,6.438,20.144,37.344,37.344,0,0,1-6.022,20.455,36.84,36.84,0,0,1-15.99,14.018q-9.137,4.361-23.674,7.061V87.637q0,5.4-5.815,5.4t-5.815-5.4V69.985q-15.367-1.038-25.958-5.5A39.082,39.082,0,0,1-46.933,51.709a30.1,30.1,0,0,1-6.126-18.275q0-8.514,4.153-13.706A13.393,13.393,0,0,1-37.9,14.537a10.628,10.628,0,0,1,7.684,3.011,10.1,10.1,0,0,1,3.115,7.58q0,8.93-10.8,9.553,1.038,9.76,10.072,15.575t23.57,6.022V3.946l-3.115-.831Q-24.194-1.454-30.216-4.153A27.085,27.085,0,0,1-41.845-13.5q-4.776-6.853-4.776-17.444A36.5,36.5,0,0,1-40.6-51.086a34.829,34.829,0,0,1,15.575-13.5A88.717,88.717,0,0,1-4.257-70.191V-86.8q0-6.23,5.815-6.23T7.373-86.8v16.613q18.69,2.077,29.7,10.383T48.075-39.457a12.884,12.884,0,0,1-3.323,9.034,10.787,10.787,0,0,1-8.307,3.634,10,10,0,0,1-7.061-2.7,8.49,8.49,0,0,1-2.907-6.438q0-4.153,4.569-7.061ZM-4.257-12.46V-56.485q-11.629.415-19,6.645A19.775,19.775,0,0,0-30.63-34.057q0,8.307,4.984,12.772T-7.994-13.5q1.038.208,3.738,1.038ZM7.372,6.438v49.84Q20.04,56.07,28.45,48.8a23.14,23.14,0,0,0,8.41-18.275q0-10.176-6.022-15.575T10.9,7.061q-.831-.208-3.53-.623Z" transform="translate(-5866 10910)"/>
                </g>
              </svg>